# Exported from Nomad Sculpt
mtllib Rock.mtl
o Quad_Sphere
usemtl Quad_Sphere
v 0.288706988 -0.28873211 0.288731634 0.999999940 0.999999940 0.999999940
v -0.33228549 -0.31251547 0.288675129 0.999999940 0.999999940 0.999999940
v 0.320450514 0.305917412 0.288675129 0.999999940 0.999999940 0.999999940
v -0.29507819 0.304102718 0.292144209 0.999999940 0.999999940 0.999999940
v -0.28867513 -0.28867513 -0.28867513 0.999999940 0.999999940 0.999999940
v 0.288675129 -0.28867513 -0.28867513 0.999999940 0.999999940 0.999999940
v -0.29462343 0.324877053 -0.28867513 0.999999940 0.999999940 0.999999940
v 0.288675129 0.288675129 -0.28867513 0.999999940 0.999999940 0.999999940
v -0.34972888 -0.0750786 0.307848870 0.999999940 0.999999940 0.999999940
v 0.009268667 -0.37012583 0.369992077 0.999999940 0.999999940 0.999999940
v 0.421300768 0.022232919 0.378872871 0.999999940 0.999999940 0.999999940
v -0.00724299 0.35614416 0.359102785 0.999999940 0.999999940 0.999999940
v -0.01518015 0.008667487 0.512786388 0.999999940 0.999999940 0.999999940
v 0.353553384 0 -0.35355338 0.999999940 0.999999940 0.999999940
v 0 -0.35355338 -0.35355338 0.999999940 0.999999940 0.999999940
v -0.35355338 0 -0.35355338 0.999999940 0.999999940 0.999999940
v 0 0.353553384 -0.35355338 0.999999940 0.999999940 0.999999940
v 0 0 -0.5 0.999999940 0.999999940 0.999999940
v 0.353553384 -0.35355338 0 0.999999940 0.999999940 0.999999940
v 0.359058827 0.358764201 -0 0.999999940 0.999999940 0.999999940
v 0.5 0 0 0.999999940 0.999999940 0.999999940
v -0.35367706 -0.35362101 0 0.999999940 0.999999940 0.999999940
v -0.32294363 0.334125429 0.000000004 0.999999940 0.999999940 0.999999940
v -0.53100049 0.008718879 -0 0.999999940 0.999999940 0.999999940
v 0.008892619 0.509405672 -0 0.999999940 0.999999940 0.999999940
v 0 -0.5 0 0.999999940 0.999999940 0.999999940
v -0.34728095 0.176048889 0.321924984 0.999999940 0.999999940 0.999999940
v -0.15476471 0.011766153 0.463320344 0.999999940 0.999999940 0.999999940
v -0.08451821 0.235357716 0.522994816 0.999999940 0.999999940 0.999999940
v -0.16903253 0.333396434 0.333837389 0.999999940 0.999999940 0.999999940
v -0.17671673 0.214593827 0.462959855 0.999999940 0.999999940 0.999999940
v -0.35459191 -0.1844832 0.330473840 0.999999940 0.999999940 0.999999940
v -0.18108328 -0.34018818 0.333010315 0.999999940 0.999999940 0.999999940
v 0.081271663 -0.16241707 0.498249888 0.999999940 0.999999940 0.999999940
v -0.12301777 -0.11797952 0.433059901 0.999999940 0.999999940 0.999999940
v 0.175130590 -0.34584385 0.345740258 0.999999940 0.999999940 0.999999940
v 0.379216373 -0.15913685 0.36253497 0.999999940 0.999999940 0.999999940
v 0.208956673 0.002702383 0.466472774 0.999999940 0.999999940 0.999999940
v 0.208483994 -0.2085368 0.461856424 0.999999940 0.999999940 0.999999940
v 0.413869112 0.210330352 0.333010315 0.999999940 0.999999940 0.999999940
v 0.168704435 0.333403855 0.333018124 0.999999940 0.999999940 0.999999940
v 0.193322122 0.189887762 0.429419666 0.999999940 0.999999940 0.999999940
v 0.333010315 0.167953029 -0.33301032 0.999999940 0.999999940 0.999999940
v 0.196724548 0 -0.4596732 0.999999940 0.999999940 0.999999940
v 0 0.196724548 -0.4596732 0.999999940 0.999999940 0.999999940
v 0.167953029 0.333010315 -0.33301032 0.999999940 0.999999940 0.999999940
v 0.182847544 0.182847544 -0.42794105 0.999999940 0.999999940 0.999999940
v 0.333010315 -0.16795303 -0.33301032 0.999999940 0.999999940 0.999999940
v 0.167953029 -0.33301032 -0.33301032 0.999999940 0.999999940 0.999999940
v 0 -0.19672455 -0.4596732 0.999999940 0.999999940 0.999999940
v 0.182847544 -0.18284754 -0.42794105 0.999999940 0.999999940 0.999999940
v -0.16795303 -0.33301032 -0.33301032 0.999999940 0.999999940 0.999999940
v -0.33301032 -0.16795303 -0.33301032 0.999999940 0.999999940 0.999999940
v -0.19672455 0 -0.4596732 0.999999940 0.999999940 0.999999940
v -0.18284754 -0.18284754 -0.42794105 0.999999940 0.999999940 0.999999940
v -0.33332688 0.168873950 -0.33301032 0.999999940 0.999999940 0.999999940
v -0.17097262 0.341839045 -0.33301032 0.999999940 0.999999940 0.999999940
v -0.18284754 0.182847544 -0.42794105 0.999999940 0.999999940 0.999999940
v 0.475322276 0.008467356 0.196724548 0.999999940 0.999999940 0.999999940
v 0.460083991 0.196948066 0 0.999999940 0.999999940 0.999999940
v 0.378480881 0.370261520 0.167953029 0.999999940 0.999999940 0.999999940
v 0.476315379 0.208761572 0.182847544 0.999999940 0.999999940 0.999999940
v 0.333010315 -0.33301032 0.167953029 0.999999940 0.999999940 0.999999940
v 0.459673196 -0.19672455 0 0.999999940 0.999999940 0.999999940
v 0.427941054 -0.18284754 0.182847544 0.999999940 0.999999940 0.999999940
v 0.333010315 -0.33301032 -0.16795303 0.999999940 0.999999940 0.999999940
v 0.459673196 0 -0.19672455 0.999999940 0.999999940 0.999999940
v 0.427941054 -0.18284754 -0.18284754 0.999999940 0.999999940 0.999999940
v 0.333010315 0.333010315 -0.16795303 0.999999940 0.999999940 0.999999940
v 0.427941054 0.182847544 -0.18284754 0.999999940 0.999999940 0.999999940
v -0.45968017 0.000001957 -0.19672455 0.999999940 0.999999940 0.999999940
v -0.45113412 0.186223730 0.000000000 0.999999940 0.999999940 0.999999940
v -0.3353278 0.391614258 -0.16795301 0.999999940 0.999999940 0.999999940
v -0.43019861 0.190716430 -0.18284754 0.999999940 0.999999940 0.999999940
v -0.33301032 -0.33301032 -0.16795303 0.999999940 0.999999940 0.999999940
v -0.47196198 -0.19326833 -0 0.999999940 0.999999940 0.999999940
v -0.42794105 -0.18284754 -0.18284754 0.999999940 0.999999940 0.999999940
v -0.36739618 -0.35180792 0.167953029 0.999999940 0.999999940 0.999999940
v -0.4851082 -0.01888475 0.181097358 0.999999940 0.999999940 0.999999940
v -0.45072824 -0.18718213 0.182845890 0.999999940 0.999999940 0.999999940
v -0.29700714 0.291749179 0.167960077 0.999999940 0.999999940 0.999999940
v -0.42301276 0.155595272 0.171158850 0.999999940 0.999999940 0.999999940
v 0.000000384 0.459673613 -0.19672455 0.999999940 0.999999940 0.999999940
v 0.230095893 0.494305968 -0.00000001 0.999999940 0.999999940 0.999999940
v 0.186038121 0.431315720 -0.18284754 0.999999940 0.999999940 0.999999940
v -0.1979081 0.464572846 0.000000000 0.999999940 0.999999940 0.999999940
v -0.19106673 0.466302275 -0.18284753 0.999999940 0.999999940 0.999999940
v 0.000927025 0.460653692 0.196724548 0.999999940 0.999999940 0.999999940
v -0.18284754 0.427941054 0.182847544 0.999999940 0.999999940 0.999999940
v 0.235802322 0.474351555 0.182847544 0.999999940 0.999999940 0.999999940
v 0 -0.4596732 0.196724548 0.999999940 0.999999940 0.999999940
v 0.196724548 -0.4596732 0 0.999999940 0.999999940 0.999999940
v 0.182847544 -0.42794105 0.182847544 0.999999940 0.999999940 0.999999940
v -0.19672455 -0.4596732 0 0.999999940 0.999999940 0.999999940
v -0.18845676 -0.43100742 0.182847544 0.999999940 0.999999940 0.999999940
v 0 -0.4596732 -0.19672455 0.999999940 0.999999940 0.999999940
v -0.18284754 -0.42794105 -0.18284754 0.999999940 0.999999940 0.999999940
v 0.182847544 -0.42794105 -0.18284754 0.999999940 0.999999940 0.999999940
vn 0.605676770 -0.65674525 0.449267745
vn -0.49127543 -0.53143686 0.690089345
vn 0.456954568 0.616871893 0.640828967
vn -0.66018808 0.641988694 0.389874756
vn -0.57735032 -0.57735032 -0.57735032
vn 0.577341675 -0.57735455 -0.57735455
vn -0.56424165 0.508898139 -0.65011847
vn 0.579918503 0.572197258 -0.5799008
vn -0.66906416 -0.01107783 0.743122160
vn -0.08407518 -0.68865353 0.720199883
vn 0.712936580 -0.00390622 0.701217591
vn 0.006622539 0.772181987 0.635367035
vn 0.012085366 -0.02975473 0.999484181
vn 0.707117557 0 -0.70709598
vn 0 -0.70710677 -0.70710677
vn -0.7065106 -0.00152587 -0.70770079
vn 0.026581423 0.693405866 -0.72005683
vn 0 0 -1
vn 0.707117557 -0.70709598 0
vn 0.752514362 0.636972963 -0.1672949
vn 0.998108804 -0.0329285 -0.05191045
vn -0.69302541 -0.71747005 -0.07037371
vn -0.73565084 0.654342114 0.175083294
vn -0.99825919 0.04330571 -0.04003901
vn -0.04187025 0.999118089 -0.00317384
vn 0.002075249 -0.99999571 -0.00207519
vn -0.72345668 0.220162659 0.654323160
vn -0.50185776 -0.11486728 0.857288897
vn 0.054169472 0.391118824 0.918744683
vn -0.39596382 0.753803849 0.524397194
vn -0.54578269 0.236887410 0.803744792
vn -0.58408296 -0.221072 0.781008601
vn -0.30098996 -0.58647722 0.751963794
vn -0.09433077 -0.33774137 0.936500191
vn -0.35250995 -0.28707999 0.890686214
vn 0.337872594 -0.73987293 0.581747591
vn 0.709273457 -0.38418189 0.591046035
vn 0.336222052 0.074007302 0.93887043
vn 0.360790014 -0.32757589 0.873226642
vn 0.611772775 0.365855157 0.701344430
vn 0.256843298 0.673023402 0.693592846
vn 0.315497905 0.371773600 0.873066783
vn 0.671229541 0.314465284 -0.67123955
vn 0.368941903 0 -0.92945254
vn 0.002410932 0.366980612 -0.93022549
vn 0.313456684 0.667777836 -0.67514271
vn 0.344068080 0.344068080 -0.87363285
vn 0.671231567 -0.31445661 -0.67124158
vn 0.314463168 -0.67123508 -0.67123508
vn 0 -0.36895853 -0.92944592
vn 0.344069302 -0.34405881 -0.87363601
vn -0.31445453 -0.67123711 -0.67123711
vn -0.67123711 -0.31445453 -0.67123711
vn -0.36889535 -0.00009155 -0.92947102
vn -0.34406009 -0.34406009 -0.87363923
vn -0.67133254 0.282024443 -0.68540132
vn -0.24935509 0.63999331 -0.72679484
vn -0.33426055 0.331554591 -0.88223666
vn 0.977213501 -0.07925503 0.196907594
vn 0.936245501 0.329050093 -0.12316877
vn 0.706047952 0.670951604 0.226539626
vn 0.938549816 0.309971064 0.151796400
vn 0.674603581 -0.68508095 0.274907469
vn 0.926568269 -0.3760359 -0.00827023
vn 0.888158023 -0.39047608 0.242288723
vn 0.671231567 -0.67124158 -0.31445661
vn 0.929359853 -0.00027466 -0.3691752
vn 0.873645424 -0.34405205 -0.34405205
vn 0.691946208 0.627002835 -0.35787967
vn 0.873647093 0.338905632 -0.34911859
vn -0.91308528 0.010895100 -0.40762299
vn -0.87871289 0.470376312 0.081300362
vn -0.73161435 0.650459051 -0.20406713
vn -0.88371813 0.357520341 -0.30202907
vn -0.66641253 -0.67370623 -0.31939706
vn -0.91554344 -0.39403677 -0.08071773
vn -0.85552889 -0.35833701 -0.37371787
vn -0.66482973 -0.70880586 0.235787525
vn -0.90328991 0.062929175 0.424390465
vn -0.89883089 -0.32153201 0.297859549
vn -0.71965873 0.65498209 0.230412572
vn -0.83597881 0.417925864 0.355636775
vn 0.027100278 0.918967962 -0.3933998
vn 0.337410330 0.934806048 -0.11086959
vn 0.337870955 0.844814717 -0.41488713
vn -0.40262234 0.907781958 0.117588967
vn -0.28228602 0.909690618 -0.30459425
vn -0.06896885 0.918076634 0.390357285
vn -0.42016101 0.847305834 0.324865669
vn 0.275429874 0.879361391 0.388409555
vn -0.00274663 -0.94416815 0.329452633
vn 0.368941903 -0.92945254 0
vn 0.356116890 -0.88289511 0.306067019
vn -0.34948426 -0.93654579 -0.02725196
vn -0.30197543 -0.90687233 0.293927669
vn 0 -0.92944592 -0.36895853
vn -0.34398988 -0.87364638 -0.34411195
vn 0.344069302 -0.87363601 -0.34405881
vt 0.317769199 0.666799306
vt 0.449082404 0.111823678
vt 0.071602121 0.70652771
vt 0.443256318 0.383239269
vt 0.20312576 0.087827503
vt 0.346531331 0.895185649
vt 0.207055181 0.333910524
vt 0.118910841 0.942272722
vt 0.473014891 0.225486159
vt 0.541932344 0.092471242
vt 0.189088836 0.676945209
vt 0.456524282 0.493652641
vt 0.583845078 0.290187358
vt 0.237606614 0.942189753
vt 0.110352918 0.060546815
vt 0.192782506 0.200682401
vt 0.11309506 0.395957052
vt 0.066026017 0.228133797
vt 0.339956492 0.779575467
vt 0.067643277 0.835372149
vt 0.205946147 0.811281979
vt 0.331173926 0.064760386
vt 0.333661258 0.374166309
vt 0.344161629 0.221064984
vt 0.271674215 0.481055438
vt 0.458178222 0.742081224
vt 0.462820410 0.323343455
vt 0.543344199 0.279758274
vt 0.537997484 0.403239011
vt 0.456235438 0.434160709
vt 0.515878140 0.374672830
vt 0.469425439 0.169874072
vt 0.486077308 0.085496127
vt 0.589967250 0.197812020
vt 0.542069554 0.202695608
vt 0.350125074 0.626902580
vt 0.257596612 0.663507223
vt 0.198418542 0.600739538
vt 0.285089850 0.601565003
vt 0.116689108 0.701387226
vt 0.040846977 0.657973885
vt 0.115836963 0.619423031
vt 0.171183034 0.948911130
vt 0.264985472 0.996058702
vt 0.075831808 0.321163713
vt 0.105092629 0.977388918
vt 0.183106288 0.999999940
vt 0.301339775 0.921839594
vt 0.390056431 0.915678441
vt 0.067560613 0.149622261
vt 0.339018374 0.968785882
vt 0.159857586 0.068123281
vt 0.196227312 0.134174048
vt 0.126743838 0.211220622
vt 0.132365137 0.139783918
vt 0.196255892 0.272769212
vt 0.162575960 0.358842313
vt 0.133239999 0.290696919
vt 0.196591436 0.741266489
vt 0.133658409 0.825545668
vt 0.054235782 0.764270782
vt 0.123725473 0.758336544
vt 0.329301744 0.713533401
vt 0.278205543 0.796738088
vt 0.269470185 0.729329824
vt 0.346859365 0.847192227
vt 0.218929857 0.880080461
vt 0.285892009 0.862843453
vt 0.093150869 0.900017917
vt 0.151055663 0.888406395
vt 0.261238545 0.201368808
vt 0.337310135 0.298532247
vt 0.254902094 0.359377861
vt 0.262962132 0.278987586
vt 0.257435530 0.071324884
vt 0.339189738 0.138677120
vt 0.262346893 0.130717814
vt 0.403906077 0.076019465
vt 0.406677365 0.226034283
vt 0.410414993 0.149621367
vt 0.404910922 0.376076281
vt 0.406722247 0.305279552
vt 0.177281916 0.449709653
vt 0.228357419 0.525938153
vt 0.044843733 0.920539856
vt 0.309310317 0.429093539
vt 0.215246051 0.407065689
vt 0.373761236 0.487987756
vt 0.387143373 0.436508119
vt 0.002708102 0.751277387
vt 0.433881580 0.654443383
vt 0.399744331 0.763423919
vt 0.384400576 0.689773917
vt 0.324194937 0.003723859
vt 0.427344471 0.010642528
vt 0.466378778 0.832758784
vt 0.522782087 0.806705296
vt 0.406200140 0.840993523
vt 0.289351671 0.557040512
vt 0.214767918 0.529480099
vt 0.389016479 0.587842166
vt 0.108188912 0.527451038
vt 0.026798714 0.598476409
vt 0.014647295 0.252443194
vt 0.025596482 0.345271349
vt 0.068852543 0.426881194
vt 0.055913697 0.084729731
vt 0.000228838 0.178124785
vt 0.137364432 0.488092660
vt 0.007319819 0.835350036
vt 0.322922945 0.539109826
vt 0.411193788 0.548430323
vt 0.468085289 0.003277003
vt 0.512285888 0.717257976
vt 0.493159890 0.647476911
vt 0.235844060 0.017286479
vt 0.17168504 0.000589191
vt 0.449939996 0.914069533
s 0
f 4/4/4 27/27/27 31/31/31 30/30/30
f 27/27/27 9/9/9 28/28/28 31/31/31
f 31/31/31 28/28/28 13/13/13 29/29/29
f 30/30/30 31/31/31 29/29/29 12/12/12
f 9/9/9 32/32/32 35/35/35 28/28/28
f 32/32/32 2/2/2 33/33/33 35/35/35
f 35/35/35 33/33/33 10/10/10 34/34/34
f 28/28/28 35/35/35 34/34/34 13/13/13
f 13/100/13 34/99/34 39/39/39 38/38/38
f 34/99/34 10/101/10 36/36/36 39/39/39
f 39/39/39 36/36/36 1/1/1 37/37/37
f 38/38/38 39/39/39 37/37/37 11/11/11
f 12/103/12 29/102/29 42/42/42 41/41/41
f 29/102/29 13/100/13 38/38/38 42/42/42
f 42/42/42 38/38/38 11/11/11 40/40/40
f 41/41/41 42/42/42 40/40/40 3/3/3
f 8/8/8 43/43/43 47/47/47 46/46/46
f 43/43/43 14/14/14 44/44/44 47/47/47
f 47/105/47 44/104/44 18/18/18 45/45/45
f 46/106/46 47/105/47 45/45/45 17/17/17
f 14/14/14 48/48/48 51/51/51 44/44/44
f 48/48/48 6/6/6 49/49/49 51/51/51
f 51/108/51 49/107/49 15/15/15 50/50/50
f 44/104/44 51/108/51 50/50/50 18/18/18
f 18/18/18 50/50/50 55/55/55 54/54/54
f 50/50/50 15/15/15 52/52/52 55/55/55
f 55/55/55 52/52/52 5/5/5 53/53/53
f 54/54/54 55/55/55 53/53/53 16/16/16
f 17/17/17 45/45/45 58/58/58 57/57/57
f 45/45/45 18/18/18 54/54/54 58/58/58
f 58/58/58 54/54/54 16/16/16 56/56/56
f 57/57/57 58/58/58 56/56/56 7/7/7
f 3/3/3 40/40/40 62/62/62 61/61/61
f 40/40/40 11/11/11 59/59/59 62/62/62
f 62/62/62 59/59/59 21/21/21 60/60/60
f 61/61/61 62/62/62 60/60/60 20/20/20
f 11/11/11 37/37/37 65/65/65 59/59/59
f 37/37/37 1/1/1 63/63/63 65/65/65
f 65/65/65 63/63/63 19/19/19 64/64/64
f 59/59/59 65/65/65 64/64/64 21/21/21
f 21/21/21 64/64/64 68/68/68 67/67/67
f 64/64/64 19/19/19 66/66/66 68/68/68
f 68/68/68 66/66/66 6/6/6 48/48/48
f 67/67/67 68/68/68 48/48/48 14/14/14
f 20/20/20 60/60/60 70/70/70 69/69/69
f 60/60/60 21/21/21 67/67/67 70/70/70
f 70/70/70 67/67/67 14/14/14 43/43/43
f 69/69/69 70/70/70 43/43/43 8/8/8
f 7/7/7 56/56/56 74/74/74 73/73/73
f 56/56/56 16/16/16 71/71/71 74/74/74
f 74/74/74 71/71/71 24/24/24 72/72/72
f 73/73/73 74/74/74 72/72/72 23/23/23
f 16/16/16 53/53/53 77/77/77 71/71/71
f 53/53/53 5/5/5 75/75/75 77/77/77
f 77/77/77 75/75/75 22/22/22 76/76/76
f 71/71/71 77/77/77 76/76/76 24/24/24
f 24/24/24 76/76/76 80/80/80 79/79/79
f 76/76/76 22/22/22 78/78/78 80/80/80
f 80/80/80 78/78/78 2/2/2 32/32/32
f 79/79/79 80/80/80 32/32/32 9/9/9
f 23/23/23 72/72/72 82/82/82 81/81/81
f 72/72/72 24/24/24 79/79/79 82/82/82
f 82/82/82 79/79/79 9/9/9 27/27/27
f 81/81/81 82/82/82 27/27/27 4/4/4
f 8/8/8 46/46/46 85/85/85 69/69/69
f 46/106/46 17/17/17 83/83/83 85/109/85
f 85/109/85 83/83/83 25/25/25 84/84/84
f 69/69/69 85/85/85 84/110/84 20/20/20
f 17/17/17 57/57/57 87/87/87 83/83/83
f 57/57/57 7/7/7 73/73/73 87/87/87
f 87/87/87 73/73/73 23/23/23 86/86/86
f 83/83/83 87/87/87 86/86/86 25/25/25
f 25/25/25 86/86/86 89/89/89 88/88/88
f 86/86/86 23/23/23 81/81/81 89/89/89
f 89/89/89 81/81/81 4/4/4 30/30/30
f 88/88/88 89/89/89 30/30/30 12/12/12
f 20/20/20 84/110/84 90/90/90 61/61/61
f 84/84/84 25/25/25 88/88/88 90/111/90
f 90/111/90 88/88/88 12/12/12 41/112/41
f 61/61/61 90/90/90 41/41/41 3/3/3
f 1/1/1 36/36/36 93/93/93 63/63/63
f 36/36/36 10/101/10 91/91/91 93/93/93
f 93/93/93 91/91/91 26/26/26 92/92/92
f 63/63/63 93/93/93 92/92/92 19/19/19
f 10/10/10 33/33/33 95/95/95 91/113/91
f 33/33/33 2/2/2 78/78/78 95/95/95
f 95/95/95 78/78/78 22/22/22 94/94/94
f 91/91/91 95/115/95 94/114/94 26/26/26
f 26/26/26 94/114/94 97/97/97 96/96/96
f 94/94/94 22/22/22 75/75/75 97/116/97
f 97/116/97 75/75/75 5/5/5 52/52/52
f 96/117/96 97/116/97 52/52/52 15/15/15
f 19/19/19 92/92/92 98/98/98 66/66/66
f 92/92/92 26/26/26 96/96/96 98/98/98
f 98/98/98 96/96/96 15/118/15 49/49/49
f 66/66/66 98/98/98 49/49/49 6/6/6
